<?xml version="1.0" encoding="utf-8"?>
<!-- Generator: Adobe Illustrator 16.0.0, SVG Export Plug-In . SVG Version: 6.00 Build 0)  -->
<!DOCTYPE svg PUBLIC "-//W3C//DTD SVG 1.1//EN" "http://www.w3.org/Graphics/SVG/1.1/DTD/svg11.dtd">
<svg version="1.1" xmlns="http://www.w3.org/2000/svg" xmlns:xlink="http://www.w3.org/1999/xlink" x="0px" y="0px" width="82px"
	 height="82px" viewBox="0 0 82 82" enable-background="new 0 0 82 82" xml:space="preserve">
<g id="Layer_1" display="none">
	
		<image display="inline" overflow="visible" width="196" height="196" xlink:href="EC31B7B8.jpg"  transform="matrix(0.9999 0 0 0.9999 -58 -62)">
	</image>
	<polygon display="inline" fill="#FFFFFF" points="0,13 0,59 4.952,59 4.952,26.246 19.021,59 24.021,59 24.021,13.084 18.979,13 
		19,43.937 4.958,13 	"/>
</g>
<g id="Layer_2">
	<polygon fill="#492525" points="0,12.988 0,58.988 4.952,58.988 4.952,26.234 19.021,58.988 24.021,58.988 24.021,13.072 
		18.979,12.988 19,43.924 4.958,12.988 	"/>
</g>
<g id="Layer_3">
	<rect x="28" y="13" fill="#492525" width="24" height="6"/>
	<rect x="28" y="33" fill="#492525" width="24" height="6"/>
	<polygon fill="#492525" points="28,52.969 28,58.988 52,59 52,52.969 	"/>
</g>
<g id="Layer_4">
	<polygon fill="#492525" points="54.938,59 80,59 80,52.969 60.938,52.969 60.938,13 54.938,13 	"/>
</g>
<g id="Layer_5">
	<polygon fill="#492525" points="82,48.188 82,54.875 113.063,38.938 113.063,36.313 82,20 82,25.938 104.063,37.438 	"/>
</g>
<g id="Layer_6">
	<polygon fill="#492525" points="-3.25,26.438 -3.25,19.75 -34.313,35.688 -34.313,38.313 -3.25,54.625 -3.25,48.688 
		-25.313,37.188 	"/>
</g>
</svg>
